<?xml version="1.0" encoding="UTF-8"?>
<svg id="Layer_1" data-name="Layer 1" xmlns="http://www.w3.org/2000/svg" version="1.1" viewBox="0 0 1920 1080">
  <defs>
    <style>
      .cls-1 {
        fill: #0a0909;
      }

      .cls-1, .cls-2 {
        stroke: #000;
        stroke-miterlimit: 10;
      }

      .cls-2 {
        fill: #e22020;
      }
    </style>
  </defs>
  <path class="cls-1" d="M586.5,353.5c.59-1.47,2.95-6.81,9-10,5.05-2.66,11.57-3.25,12-2,.37,1.07-3.55,4.04-21,12Z"/>
  <path class="cls-1" d="M638.33,347.82c-.75,2.19-1.68,4.44-2.83,6.68-1.67,3.24-5.09,9.85-12,15-12.63,9.41-23.09,3.55-36,11-5.1,2.94-11.82,8.66-17,21,3.97-5.26,10.71-12.91,21-19,17.48-10.34,31.28-4.56,40-16,3.25-4.26,4.5-9.09,6.91-18.64-.03-.01-.05-.03-.08-.04Z"/>
  <path class="cls-1" d="M572.5,432.5c.91.97,49.75-50.33,61-42,4.81,3.56,1.4,17.01,1,17-.45,0,3.11-17.08-3-21-12.68-8.14-59.91,45.03-59,46Z"/>
  <path class="cls-1" d="M662.5,383.5"/>
  <path class="cls-1" d="M640.5,371.5"/>
  <path class="cls-1" d="M676.5,364.5"/>
  <path class="cls-2" d="M634.5,333.5"/>
  <path class="cls-1" d="M656.5,447.5"/>
  <path class="cls-1" d="M686.5,336.5"/>
</svg>